<svg xmlns:rdf="http://www.w3.org/1999/02/22-rdf-syntax-ns#" xmlns="http://www.w3.org/2000/svg" xmlns:cc="http://creativecommons.org/ns#" xmlns:dc="http://purl.org/dc/elements/1.1/" height="61.56244" width="246.69695" version="1.1" viewBox="0 0 246.69695 61.56244"><defs><clipPath id="clip-path" transform="translate(0.34781)"><rect width="480" height="320" fill="none"/></clipPath></defs><title>F1 new logo</title><g clip-path="url(#clip-path)"><path d="M184.588,61.56244,246.34914,0H207.64281L146.08037,61.56244ZM175.843,26.73171H97.98316c-20.71956,0-23.94923,1.59-33.29042,10.98087L40.7932,61.56244H73.13956L80.7914,53.9106c5.16746-5.16746,7.35369-5.61465,17.639-5.61465h55.84842ZM61.81089,35.07916l-27.328,26.48328H-.34781L42.97944,18.583C59.12777,2.58373,66.879,0,94.356,0H202.92253L179.37079,23.10454H97.4863C76.96547,23.10454,72.593,24.64485,61.81089,35.07916ZM207.49376,61.56244h1.29186V55.64966l2.18624,5.91278H212.065l2.18622-5.91278v5.91278h1.29187V53.9106h-1.9378l-2.03717,6.01216-2.13655-6.01216h-1.93779Zm-7.10528-6.509h2.43468v6.509h1.34155v-6.509h2.48436V53.9106h-6.26059Z" transform="translate(0.34781)" fill="#ff1e00"/></g></svg>